<svg width="800" height="800" viewBox="0 0 800 800" fill="none" xmlns="http://www.w3.org/2000/svg">
<g clip-path="url(#clip0_304_188)">
<path d="M800 0H0V800H800V0Z" fill="white"/>
<path d="M800 0H0V800H800V0Z" fill="#00C5DF" fill-opacity="0.321529"/>
<mask id="mask0_304_188" style="mask-type:luminance" maskUnits="userSpaceOnUse" x="0" y="0" width="800" height="800">
<path d="M800 0H0V800H800V0Z" fill="white"/>
</mask>
<g mask="url(#mask0_304_188)">
<g filter="url(#filter0_f_304_188)">
<path d="M661 206H161.5V836H661V206Z" fill="#00C5DF"/>
<path d="M705.5 86H189.5V647.5H705.5V86Z" fill="#EE46D3"/>
<path d="M996.5 259.5H393.5V689H996.5V259.5Z" fill="#907CFF"/>
<path d="M883 268.5H361V788.5H883V268.5Z" fill="#18A0FB"/>
</g>
</g>
<g style="mix-blend-mode:overlay">
<path d="M800 0H0V800H800V0Z" fill="#808080"/>
</g>
</g>
<defs>
<filter id="filter0_f_304_188" x="-88.5" y="-164" width="1335" height="1250" filterUnits="userSpaceOnUse" color-interpolation-filters="sRGB">
<feFlood flood-opacity="0" result="BackgroundImageFix"/>
<feBlend mode="normal" in="SourceGraphic" in2="BackgroundImageFix" result="shape"/>
<feGaussianBlur stdDeviation="125" result="effect1_foregroundBlur_304_188"/>
</filter>
<clipPath id="clip0_304_188">
<rect width="800" height="800" fill="white"/>
</clipPath>
</defs>
</svg>
